<svg aria-hidden="true" style="width:0;height:0;position:absolute;overflow:hidden" xmlns="http://www.w3.org/2000/svg"><defs><symbol id="icon-close" viewBox="0 0 32 32"><path d="M1.646 32a1.646 1.646 0 0 1-1.163-2.811L29.19.482a1.646 1.646 0 1 1 2.328 2.329L2.811 31.517A1.65 1.65 0 0 1 1.646 32z"/><path d="M30.355 32c-.421 0-.843-.16-1.163-.483L.483 2.811A1.647 1.647 0 0 1 2.812.482l28.707 28.707A1.646 1.646 0 0 1 30.356 32z"/></symbol><symbol id="icon-barcode" viewBox="0 0 32 32"><path d="M0 4h4v20H0zm6 0h2v20H6zm4 0h2v20h-2zm6 0h2v20h-2zm8 0h2v20h-2zm6 0h2v20h-2zM20 4h1v20h-1zm-6 0h1v20h-1zm13 0h1v20h-1zM0 26h2v2H0zm6 0h2v2H6zm4 0h2v2h-2zm10 0h2v2h-2zm10 0h2v2h-2zm-6 0h4v2h-4zm-10 0h4v2h-4z"/></symbol><symbol id="icon-barcode2" viewBox="0 0 29 19"><svg width="29" height="19" viewBox="0 0 29 19" fill="none" xmlns="http://www.w3.org/2000/svg"><path d="M3.222.833H0v19.334h3.222V.833ZM11.327.833H8.104v19.334h3.223V.833ZM16.209.833h-3.222v19.334h3.222V.833ZM29 .833h-4.785v19.334H29V.833ZM6.444.833H4.882v19.334h1.562V.833ZM19.333.833h-1.562v19.334h1.562V.833ZM22.555.833h-1.562v19.334h1.563V.833Z" fill="#0E0E0E"/></svg></symbol></defs></svg>