<svg aria-hidden="true" style="position: absolute; width: 0; height: 0; overflow: hidden;" version="1.1"
    xmlns="http://www.w3.org/2000/svg" xmlns:xlink="http://www.w3.org/1999/xlink">
    <defs>
        <symbol id="icon-close" viewBox="0 0 32 32">
            <path
                d="M1.646 32c-0.422 0-0.843-0.16-1.163-0.483-0.643-0.643-0.643-1.685 0-2.328l28.707-28.707c0.643-0.643 1.685-0.643 2.328 0s0.643 1.685 0 2.329l-28.707 28.706c-0.323 0.321-0.744 0.483-1.165 0.483z">
            </path>
            <path
                d="M30.355 32c-0.421 0-0.843-0.16-1.163-0.483l-28.709-28.706c-0.643-0.643-0.643-1.686 0-2.329s1.685-0.643 2.329 0l28.707 28.707c0.643 0.643 0.643 1.685 0 2.328-0.323 0.321-0.744 0.483-1.163 0.483z">
            </path>
        </symbol>
        <symbol id="icon-barcode" viewBox="0 0 32 32">
            <path d="M0 4h4v20h-4zM6 4h2v20h-2zM10 4h2v20h-2zM16 4h2v20h-2zM24 4h2v20h-2zM30 4h2v20h-2zM20 4h1v20h-1zM14 4h1v20h-1zM27 4h1v20h-1zM0 26h2v2h-2zM6 26h2v2h-2zM10 26h2v2h-2zM20 26h2v2h-2zM30 26h2v2h-2zM24 26h4v2h-4zM14 26h4v2h-4z"></path>
        </symbol>

        <symbol id="icon-barcode2" viewBox="0 0 29 19">
            <svg width="29" height="19" viewBox="0 0 29 19" fill="none" xmlns="http://www.w3.org/2000/svg">
<path d="M3.22222 0.833496L0 0.833496L0 20.1668H3.22222L3.22222 0.833496Z" fill="#0E0E0E"/>
<path d="M11.3266 0.833496L8.1044 0.833496L8.1044 20.1668H11.3266L11.3266 0.833496Z" fill="#0E0E0E"/>
<path d="M16.2088 0.833496L12.9866 0.833496L12.9866 20.1668H16.2088L16.2088 0.833496Z" fill="#0E0E0E"/>
<path d="M28.9999 0.833496L24.2154 0.833496L24.2154 20.1668H28.9999L28.9999 0.833496Z" fill="#0E0E0E"/>
<path d="M6.44449 0.833496L4.88219 0.833496L4.88219 20.1668H6.44449L6.44449 0.833496Z" fill="#0E0E0E"/>
<path d="M19.3333 0.833496L17.771 0.833496L17.771 20.1668H19.3333L19.3333 0.833496Z" fill="#0E0E0E"/>
<path d="M22.5555 0.833496L20.9932 0.833496L20.9932 20.1668H22.5555L22.5555 0.833496Z" fill="#0E0E0E"/>
</svg>
        </symbol>
        
    </defs>
</svg>